<svg xmlns="http://www.w3.org/2000/svg" viewBox="0 0 1400 620" width="1400" height="620">
<defs><linearGradient id="s" x1="0" y1="0" x2="0" y2="1"><stop offset="0" stop-color="#1e40af"/><stop offset="1" stop-color="#3b82f6"/></linearGradient></defs>
<rect width="1400" height="620" fill="url(#s)"/>
<circle cx="1180" cy="120" r="70" fill="#fde68a" opacity=".55"/>

        <rect x="120" y="330" width="1160" height="240" fill="#e2e8f0"/>
        <rect x="120" y="300" width="1160" height="34" fill="#ffffff" opacity=".85"/>
        <polygon points="700,190 940,300 460,300" fill="#ffffff" opacity=".9"/>
        <rect x="640" y="210" width="120" height="90" fill="#f59e0b" opacity=".8"/>
        <rect x="160" y="370" width="55" height="80" fill="#ffffff" opacity=".78" rx="4"/><rect x="255" y="370" width="55" height="80" fill="#ffffff" opacity=".78" rx="4"/><rect x="350" y="370" width="55" height="80" fill="#ffffff" opacity=".78" rx="4"/><rect x="445" y="370" width="55" height="80" fill="#ffffff" opacity=".78" rx="4"/><rect x="540" y="370" width="55" height="80" fill="#ffffff" opacity=".78" rx="4"/><rect x="635" y="370" width="55" height="80" fill="#ffffff" opacity=".78" rx="4"/><rect x="730" y="370" width="55" height="80" fill="#ffffff" opacity=".78" rx="4"/><rect x="825" y="370" width="55" height="80" fill="#ffffff" opacity=".78" rx="4"/><rect x="920" y="370" width="55" height="80" fill="#ffffff" opacity=".78" rx="4"/><rect x="1015" y="370" width="55" height="80" fill="#ffffff" opacity=".78" rx="4"/><rect x="1110" y="370" width="55" height="80" fill="#ffffff" opacity=".78" rx="4"/><rect x="1205" y="370" width="55" height="80" fill="#ffffff" opacity=".78" rx="4"/>
        <rect x="160" y="480" width="55" height="70" fill="#ffffff" opacity=".55" rx="4"/><rect x="255" y="480" width="55" height="70" fill="#ffffff" opacity=".55" rx="4"/><rect x="350" y="480" width="55" height="70" fill="#ffffff" opacity=".55" rx="4"/><rect x="445" y="480" width="55" height="70" fill="#ffffff" opacity=".55" rx="4"/><rect x="540" y="480" width="55" height="70" fill="#ffffff" opacity=".55" rx="4"/><rect x="635" y="480" width="55" height="70" fill="#ffffff" opacity=".55" rx="4"/><rect x="730" y="480" width="55" height="70" fill="#ffffff" opacity=".55" rx="4"/><rect x="825" y="480" width="55" height="70" fill="#ffffff" opacity=".55" rx="4"/><rect x="920" y="480" width="55" height="70" fill="#ffffff" opacity=".55" rx="4"/><rect x="1015" y="480" width="55" height="70" fill="#ffffff" opacity=".55" rx="4"/><rect x="1110" y="480" width="55" height="70" fill="#ffffff" opacity=".55" rx="4"/><rect x="1205" y="480" width="55" height="70" fill="#ffffff" opacity=".55" rx="4"/>
        <rect x="640" y="470" width="120" height="100" fill="#f59e0b"/>
<text x="700" y="70" text-anchor="middle" font-family="Poppins,Arial" font-size="34" font-weight="700" fill="#ffffff" opacity=".92">Main Administrative Block</text>
</svg>